<svg xmlns="http://www.w3.org/2000/svg" version="1.1" xmlns:xlink="http://www.w3.org/1999/xlink" xmlns:svgjs="http://svgjs.com/svgjs" width="512" height="512"><svg xmlns:dc="http://purl.org/dc/elements/1.1/" xmlns:cc="http://creativecommons.org/ns#" xmlns:rdf="http://www.w3.org/1999/02/22-rdf-syntax-ns#" xmlns:svg="http://www.w3.org/2000/svg" xmlns="http://www.w3.org/2000/svg" xmlns:sodipodi="http://sodipodi.sourceforge.net/DTD/sodipodi-0.dtd" xmlns:inkscape="http://www.inkscape.org/namespaces/inkscape" width="512" height="512" viewBox="0 0 135.46666 135.46667" version="1.1" id="SvgjsSvg1044" inkscape:version="1.0.2 (e86c870879, 2021-01-15)" sodipodi:docname="icon.svg">
  <defs id="SvgjsDefs1043"></defs>
  <sodipodi:namedview id="SvgjsSodipodi:namedview1042" pagecolor="#ffffff" bordercolor="#666666" borderopacity="1.0" inkscape:pageopacity="0.0" inkscape:pageshadow="2" inkscape:zoom="0.28070068" inkscape:cx="404.6292" inkscape:cy="772.81074" inkscape:document-units="mm" inkscape:current-layer="layer1" inkscape:document-rotation="0" showgrid="false" inkscape:window-width="1920" inkscape:window-height="966" inkscape:window-x="0" inkscape:window-y="0" inkscape:window-maximized="1" units="px"></sodipodi:namedview>
  <metadata id="SvgjsMetadata1041">
    <rdf:rdf>
      <cc:work rdf:about="">
        <dc:format>image/svg+xml</dc:format>
        <dc:type rdf:resource="http://purl.org/dc/dcmitype/StillImage"></dc:type>
        <dc:title></dc:title>
      </cc:work>
    </rdf:rdf>
  </metadata>
  <g inkscape:label="Layer 1" inkscape:groupmode="layer" id="SvgjsG1040">
    <path style="fill:#fc886d;fill-opacity:1;stroke-width:0.328546" d="M 30.306863,134.08139 C 14.946917,132.30173 2.9607057,119.94793 1.3580415,104.24479 0.70527861,97.848838 1.1148821,30.362479 1.8244799,27.39476 5.2531741,13.055222 16.432758,3.0186936 30.780578,1.3992907 c 3.984514,-0.44972445 69.938372,-0.44972445 73.922882,0 15.61729,1.7626884 27.61983,13.7659243 29.39263,29.3942993 0.45537,4.014477 0.45268,69.9414 -0.002,73.92289 -1.79265,15.6624 -13.75838,27.63005 -29.3896,29.39431 -3.62847,0.40953 -70.837451,0.38297 -74.396603,-0.0294 z" id="SvgjsPath1039" sodipodi:nodetypes="cssssscscc" inkscape:export-filename="/home/adrian/Documents/Projects/teacher-data-app-web/src/icon/icon.png" inkscape:export-xdpi="96" inkscape:export-ydpi="96"></path>
    <g id="SvgjsG1038" transform="matrix(1.4943236,0,0,1.4943236,208.33446,-17.83802)" style="fill:#e7e9ec;fill-opacity:1;stroke:#e7e9ec;stroke-opacity:1">
      <path style="fill:#e7e9ec;fill-opacity:1;stroke:#e7e9ec;stroke-width:0.264999;stroke-opacity:1" d="m -79.980418,84.582949 c -0.156548,0 -3.817524,2.647336 -4.442105,3.212205 -1.05764,0.956527 1.43388,-0.02469 2.861842,-1.127061 1.501679,-1.159391 2.203563,-2.085144 1.580263,-2.085144 z" id="SvgjsPath1037"></path>
      <path style="fill:#e7e9ec;fill-opacity:1;stroke:#e7e9ec;stroke-width:0.264999;stroke-opacity:1" d="m -83.956917,83.310676 c -0.48709,-0.07009 -6.69675,4.206597 -6.69675,4.612121 0,0.575689 1.6954,-0.316126 4.210079,-2.214335 2.43245,-1.836142 2.946159,-2.331669 2.486671,-2.397786 z" id="SvgjsPath1036"></path>
      <path style="fill:#e7e9ec;fill-opacity:1;stroke:#e7e9ec;stroke-width:0.264999;stroke-opacity:1" d="m -92.97859,83.309676 c -0.463211,-0.06904 -6.67091,4.223811 -6.67091,4.613156 0,0.578334 1.691873,-0.317698 4.183724,-2.215369 2.342351,-1.783826 2.913287,-2.334276 2.487186,-2.397787 z" id="SvgjsPath1035"></path>
      <path style="fill:#e7e9ec;fill-opacity:1;stroke:#e7e9ec;stroke-width:0.264999;stroke-opacity:1" d="m -80.914209,83.303976 c -0.473326,0.03395 -1.61857,0.74984 -3.713469,2.317171 -2.662391,1.991905 -3.087706,2.401403 -2.495455,2.401403 0.486079,0 1.69863,-0.73891 3.79925,-2.315104 2.480151,-1.860976 2.969535,-2.332128 2.495455,-2.401403 -0.02566,-0.0038 -0.05423,-0.0043 -0.08578,-0.0021 z" id="SvgjsPath1034"></path>
      <path style="fill:#e7e9ec;fill-opacity:1;stroke:#e7e9ec;stroke-width:0.264999;stroke-opacity:1" d="m -99.170459,83.303976 c -0.473326,0.03395 -1.618571,0.74984 -3.713471,2.317171 -2.66239,1.991905 -3.0877,2.401403 -2.49545,2.401403 0.48608,0 1.69863,-0.73891 3.79925,-2.315104 2.480148,-1.860976 2.969532,-2.33213 2.495452,-2.401403 -0.02566,-0.0038 -0.05423,-0.0043 -0.08578,-0.0021 z" id="SvgjsPath1033"></path>
      <path style="fill:#e7e9ec;fill-opacity:1;stroke:#e7e9ec;stroke-width:0.264999;stroke-opacity:1" d="m -87.059054,83.260046 c -0.345421,0 -6.50503,4.405887 -6.50503,4.652947 0,0.553942 1.5537,-0.26053 3.955831,-2.073259 2.861601,-2.159466 3.276938,-2.579688 2.549199,-2.579688 z" id="SvgjsPath1032"></path>
      <path style="fill:#e7e9ec;fill-opacity:1;stroke:#e7e9ec;stroke-width:0.264999;stroke-opacity:1" d="m -95.923114,83.234206 c -0.487389,0.02252 -1.736833,0.784135 -3.720703,2.270665 -3.609433,2.704581 -3.415763,2.517674 -2.611213,2.517674 0.40912,0 1.77194,-0.824936 3.605986,-2.182812 1.62153,-1.200547 2.952945,-2.27211 2.958475,-2.38125 0.008,-0.157314 -0.07008,-0.231781 -0.232545,-0.224277 z" id="SvgjsPath1031"></path>
      <path style="fill:#e7e9ec;fill-opacity:1;stroke:#e7e9ec;stroke-width:0.264999;stroke-opacity:1" d="m -105.10963,83.225406 c -0.4443,0.0031 -1.82301,0.850328 -3.91139,2.422591 -2.62606,1.97707 -3.03433,2.374532 -2.43965,2.374532 0.4823,0 1.63525,-0.692825 3.55069,-2.133203 1.56013,-1.173184 2.87639,-2.244746 2.92489,-2.38125 0.0679,-0.19099 0.0236,-0.283689 -0.12454,-0.28267 z" id="SvgjsPath1030"></path>
      <path style="fill:#e7e9ec;fill-opacity:1;stroke:#e7e9ec;stroke-width:0.264999;stroke-opacity:1" d="m -101.91758,83.212486 c -0.43173,-0.05766 -1.76693,0.724514 -3.73155,2.203484 -3.59898,2.70931 -3.49088,2.606559 -2.74144,2.606559 0.3734,0 1.83301,-0.907402 3.62459,-2.253091 1.64978,-1.239189 2.99981,-2.310752 2.99981,-2.38125 0,-0.104537 -0.0518,-0.162396 -0.15141,-0.175702 z" id="SvgjsPath1029"></path>
      <path style="fill:#e7e9ec;fill-opacity:1;stroke:#e7e9ec;stroke-width:0.264999;stroke-opacity:1" d="m -89.763799,83.21197 c -0.449318,-0.002 -1.833621,0.823505 -3.794601,2.292885 -3.607409,2.70306 -3.414633,2.517674 -2.618444,2.517674 0.398709,0 1.771883,-0.829638 3.549653,-2.144572 1.594741,-1.179555 2.939423,-2.251118 2.987931,-2.38125 0.07135,-0.191408 0.02523,-0.28406 -0.124539,-0.284737 z" id="SvgjsPath1028"></path>
      <path style="fill:#e7e9ec;fill-opacity:1;stroke:#e7e9ec;stroke-width:0.264999;stroke-opacity:1" d="m -107.99163,83.21197 c -0.39872,-0.05428 -1.62118,0.64502 -3.31969,1.920296 -1.37129,1.029594 -2.65899,1.966116 -2.86133,2.081527 -0.46165,0.263329 -0.10808,0.895699 0.39326,0.703315 0.20287,-0.07785 1.61998,-1.107114 3.14865,-2.287198 1.52866,-1.180081 2.77916,-2.196066 2.77916,-2.257743 0,-0.09492 -0.048,-0.147671 -0.14005,-0.160197 z" id="SvgjsPath1027"></path>
      <path style="fill:#e7e9ec;fill-opacity:1;stroke:#e7e9ec;stroke-width:0.264999;stroke-opacity:1" d="m -109.55484,81.50613 c -0.11026,0.01266 -0.3253,0.170439 -0.74414,0.485243 -0.47295,0.355455 -1.78263,1.336614 -2.91042,2.180228 -1.12778,0.843616 -2.05052,1.710795 -2.05052,1.927016 0,0.570957 0.4413,0.332015 3.28249,-1.775603 1.78369,-1.323158 2.53835,-2.045563 2.53835,-2.430344 0,-0.26671 -0.005,-0.399198 -0.11576,-0.38654 z" id="SvgjsPath1026"></path>
      <path style="fill:#e7e9ec;fill-opacity:1;stroke:#e7e9ec;stroke-width:0.264999;stroke-opacity:1" d="m -109.60544,79.291279 c -0.53263,0 -5.65444,4.145365 -5.65444,4.576466 0,0.668772 0.0962,0.61567 3.15175,-1.736846 v 5.18e-4 c 2.24878,-1.731502 3.22564,-2.840138 2.50269,-2.840138 z" id="SvgjsPath1025"></path>
      <path style="fill:#e7e9ec;fill-opacity:1;stroke:#e7e9ec;stroke-width:0.264999;stroke-opacity:1" d="m -109.53514,77.033537 c -0.21194,-0.0288 -0.90428,0.494352 -3.14503,2.183844 -1.41883,1.069787 -2.57969,2.119712 -2.57969,2.332675 0,0.613479 0.20063,0.505076 3.08457,-1.663464 1.68325,-1.265696 2.72879,-2.233602 2.73162,-2.529044 0.002,-0.183576 0.005,-0.310922 -0.0915,-0.324011 z" id="SvgjsPath1024"></path>
      <path style="fill:#e7e9ec;fill-opacity:1;stroke:#e7e9ec;stroke-width:0.264999;stroke-opacity:1" d="m -109.49074,74.796463 c -0.0778,0.0039 -0.18882,0.03245 -0.3359,0.08888 -1.07801,0.41367 -5.43326,3.983992 -5.43326,4.45399 0,0.62679 -0.0361,0.647494 3.24115,-1.862936 1.9757,-1.513409 3.07281,-2.707527 2.52801,-2.679939 z" id="SvgjsPath1023"></path>
      <path style="fill:#e7e9ec;fill-opacity:1;stroke:#e7e9ec;stroke-width:0.264999;stroke-opacity:1" d="m -106.38912,67.7571 c -0.11343,0.01672 -0.32865,0.171532 -0.73484,0.47749 -0.47295,0.356217 -1.7231,1.289736 -2.77812,2.074807 -1.1253,0.83737 -1.91823,1.621915 -1.91823,1.89756 0,0.686716 0.0592,0.654937 2.92798,-1.554427 1.75245,-1.349645 2.62827,-2.197722 2.62827,-2.545064 0,-0.246073 -0.0116,-0.367088 -0.12506,-0.350366 z" id="SvgjsPath1022"></path>
      <path style="fill:#e7e9ec;fill-opacity:1;stroke:#e7e9ec;stroke-width:0.264999;stroke-opacity:1" d="m -106.34212,65.691077 c -0.25262,-0.0542 -1.09523,0.50787 -2.81585,1.82676 -1.7661,1.353748 -2.66237,2.214504 -2.66237,2.556952 0,0.54973 5.19263,-3.181803 5.4839,-3.940847 0.10205,-0.265938 0.10914,-0.41823 -0.006,-0.442865 z" id="SvgjsPath1021"></path>
      <path style="fill:#e7e9ec;fill-opacity:1;stroke:#e7e9ec;stroke-width:0.264999;stroke-opacity:1" d="m -89.681127,64.536107 c -0.208433,0.0062 -0.606769,0.199967 -1.104842,0.608232 -0.73471,0.602234 -0.751099,0.650425 -0.217558,0.65164 0.317031,7.94e-4 0.763518,-0.185767 0.992187,-0.414446 0.552,-0.551998 0.598199,-0.853437 0.330213,-0.845426 z" id="SvgjsPath1020"></path>
      <path style="fill:#e7e9ec;fill-opacity:1;stroke:#e7e9ec;stroke-width:0.264999;stroke-opacity:1" d="m -106.37055,63.287604 c -0.22307,-0.03802 -0.91164,0.483786 -3.03495,2.109433 -1.48325,1.135579 -2.41484,2.03498 -2.41484,2.331125 0,0.584856 -0.027,0.599834 3.10885,-1.749248 1.60649,-1.203415 2.4474,-2.008708 2.4474,-2.343528 0,-0.19771 -0.005,-0.330496 -0.10646,-0.347782 z" id="SvgjsPath1019"></path>
      <path style="fill:#e7e9ec;fill-opacity:1;stroke:#e7e9ec;stroke-width:0.264999;stroke-opacity:1" d="m -106.34885,60.862947 c -0.0811,-0.0072 -0.23982,0.110924 -0.55087,0.3483 -0.34958,0.266798 -1.59575,1.199616 -2.76934,2.072741 -1.22502,0.911383 -2.1375,1.784699 -2.14251,2.05052 -0.0127,0.674304 0.0367,0.648248 2.91455,-1.531172 1.82731,-1.383837 2.63292,-2.159405 2.63292,-2.535246 0,-0.265014 -0.004,-0.397933 -0.0847,-0.405143 z" id="SvgjsPath1018"></path>
      <path style="fill:#e7e9ec;fill-opacity:1;stroke:#e7e9ec;stroke-width:0.264999;stroke-opacity:1" d="m -106.43105,58.73026 c -0.26387,0.03465 -0.95821,0.555916 -2.75642,1.917713 -1.77561,1.344687 -2.63291,2.16458 -2.63291,2.517674 0,0.691227 5.52778,-3.345137 5.54488,-4.048847 0.006,-0.253039 0.003,-0.407328 -0.15555,-0.38654 z" id="SvgjsPath1017"></path>
      <path style="fill:#e7e9ec;fill-opacity:1;stroke:#e7e9ec;stroke-width:0.264999;stroke-opacity:1" d="m -106.38665,56.377431 c -0.11252,0.01562 -0.32762,0.171416 -0.73742,0.480076 -0.47295,0.356217 -1.7231,1.289738 -2.77812,2.074807 -1.16571,0.867431 -1.91823,1.618036 -1.91823,1.913062 0,0.588677 -0.0292,0.605065 3.10885,-1.745628 1.65764,-1.241732 2.4474,-2.003772 2.4474,-2.361613 0,-0.251788 -0.01,-0.376319 -0.12248,-0.360704 z" id="SvgjsPath1016"></path>
      <path style="fill:#e7e9ec;fill-opacity:1;stroke:#e7e9ec;stroke-width:0.264999;stroke-opacity:1" d="m -106.43215,54.155863 c -0.49355,0 -5.37093,3.898527 -5.379,4.299479 -0.0136,0.674412 0.0364,0.648118 2.91403,-1.531173 2.21956,-1.680901 3.18783,-2.768306 2.46497,-2.768306 z" id="SvgjsPath1015"></path>
      <path style="fill:#e7e9ec;fill-opacity:1;stroke:#e7e9ec;stroke-width:0.264999;stroke-opacity:1" d="m -106.38975,52.113094 c -0.69721,-0.06445 -5.43067,3.526536 -5.43067,4.197676 0,0.472273 1.03249,-0.207775 5.51336,-3.632335 0.0492,-0.03763 0.0492,-0.263504 0,-0.50178 -0.008,-0.03874 -0.0362,-0.05926 -0.0827,-0.06356 z" id="SvgjsPath1014"></path>
      <path style="fill:#e7e9ec;fill-opacity:1;stroke:#e7e9ec;stroke-width:0.264999;stroke-opacity:1" d="m -106.38675,49.498265 c -0.11249,0.01559 -0.32752,0.171349 -0.73742,0.480076 -0.47295,0.356216 -1.7231,1.289735 -2.77812,2.074807 -1.17168,0.871881 -1.91823,1.617636 -1.91823,1.915646 0,0.556398 0.0808,0.508246 3.63802,-2.148705 1.26288,-0.94326 1.91823,-1.613175 1.91823,-1.96112 0,-0.251926 -0.01,-0.376293 -0.12248,-0.360704 z" id="SvgjsPath1013"></path>
      <path style="fill:#e7e9ec;fill-opacity:1;stroke:#e7e9ec;stroke-width:0.264999;stroke-opacity:1" d="m -106.43225,47.276696 c -0.49355,0 -5.37093,3.898527 -5.379,4.299479 -0.0136,0.674413 0.0364,0.648118 2.91403,-1.531173 2.21956,-1.6809 3.18783,-2.768306 2.46497,-2.768306 z" id="SvgjsPath1012"></path>
      <path style="fill:#e7e9ec;fill-opacity:1;stroke:#e7e9ec;stroke-width:0.264999;stroke-opacity:1" d="m -106.39035,45.206022 c -0.69928,-0.101375 -5.43016,3.481922 -5.43016,4.195609 0,0.510069 0.91059,-0.08465 5.51336,-3.602363 0.0492,-0.03763 0.0492,-0.272563 0,-0.521933 -0.008,-0.04145 -0.0366,-0.06455 -0.0832,-0.07131 z" id="SvgjsPath1011"></path>
      <path style="fill:#e7e9ec;fill-opacity:1;stroke:#e7e9ec;stroke-width:0.264999;stroke-opacity:1" d="m -106.43225,42.77878 c -0.52669,0 -5.37088,3.9004 -5.379,4.331001 -0.008,0.450355 0.0673,0.436462 0.85059,-0.153479 0.47294,-0.356217 1.72311,-1.289736 2.77813,-2.074807 1.63813,-1.218973 2.37369,-2.102715 1.75028,-2.102715 z" id="SvgjsPath1010"></path>
      <path style="fill:#e7e9ec;fill-opacity:1;stroke:#e7e9ec;stroke-width:0.264999;stroke-opacity:1" d="m -83.666717,41.720446 c -0.546299,0 -5.664253,4.111305 -5.664253,4.550111 0,0.620694 -0.03849,0.641898 3.241146,-1.830898 2.160158,-1.628738 3.131947,-2.719213 2.423107,-2.719213 z" id="SvgjsPath1009"></path>
      <path style="fill:#e7e9ec;fill-opacity:1;stroke:#e7e9ec;stroke-width:0.264999;stroke-opacity:1" d="m -106.40951,40.39753 c -0.55593,0 -5.41104,4.065031 -5.41104,4.530473 0,0.510061 0.0597,0.497509 0.99942,-0.208256 0.54961,-0.412771 1.7949,-1.345655 2.76727,-2.073259 1.45236,-1.086766 2.30196,-2.248958 1.64435,-2.248958 z" id="SvgjsPath1008"></path>
      <path style="fill:#e7e9ec;fill-opacity:1;stroke:#e7e9ec;stroke-width:0.264999;stroke-opacity:1" d="m -84.41344,40.132946 c -0.345422,0 -6.50503,4.405887 -6.50503,4.652947 0,0.566243 1.630645,-0.262374 4.005955,-2.035019 2.771122,-2.068031 3.296143,-2.617928 2.499075,-2.617928 z" id="SvgjsPath1007"></path>
      <path style="fill:#e7e9ec;fill-opacity:1;stroke:#e7e9ec;stroke-width:0.264999;stroke-opacity:1" d="m -107.52934,39.38829 c -0.45381,-0.06658 -3.83226,2.196102 -6.13554,4.10931 -0.0685,0.05694 0.0386,0.204761 0.23822,0.328144 0.25249,0.156046 1.29151,-0.472596 3.41375,-2.064991 2.38536,-1.789824 2.92725,-2.307368 2.48357,-2.372463 z" id="SvgjsPath1006"></path>
      <path style="fill:#e7e9ec;fill-opacity:1;stroke:#e7e9ec;stroke-width:0.264999;stroke-opacity:1" d="m -109.49046,38.280863 c -0.59266,0 -5.48658,3.842406 -5.49579,4.314981 -0.0114,0.585592 -0.0579,0.611965 3.35948,-1.878438 2.42118,-1.764422 3.01042,-2.436543 2.13631,-2.436543 z" id="SvgjsPath1005"></path>
      <path style="fill:#e7e9ec;fill-opacity:1;stroke:#e7e9ec;stroke-width:0.264999;stroke-opacity:1" d="m -109.55506,35.988497 c -0.53383,0.04603 -5.70508,4.159038 -5.70508,4.561478 0,0.57564 0.10277,0.518564 2.94039,-1.630392 2.48217,-1.879767 3.14882,-2.575377 2.80138,-2.922818 -0.007,-0.0072 -0.0195,-0.0098 -0.0367,-0.0083 z" id="SvgjsPath1004"></path>
      <path style="fill:#e7e9ec;fill-opacity:1;stroke:#e7e9ec;stroke-width:0.264999;stroke-opacity:1" d="m -109.52406,33.65324 c -0.2021,-0.04315 -0.88261,0.479171 -3.16622,2.212266 -1.41351,1.072761 -2.56987,2.127408 -2.56987,2.343528 0,0.578726 0.48452,0.314198 3.29851,-1.800924 1.65904,-1.247015 2.52233,-2.070592 2.52233,-2.406057 0,-0.192722 0.007,-0.329202 -0.0847,-0.348813 z" id="SvgjsPath1003"></path>
      <path style="fill:#e7e9ec;fill-opacity:1;stroke:#e7e9ec;stroke-width:0.264999;stroke-opacity:1" d="m -110.56276,32.504988 c -0.90277,0.07002 -4.67697,2.83846 -4.6886,3.47369 -0.0106,0.579382 0.008,0.569468 3.01273,-1.666565 1.82602,-1.358818 2.19405,-1.737992 1.7539,-1.805575 -0.0229,-0.0035 -0.0489,-0.0038 -0.078,-0.0016 z" id="SvgjsPath1002"></path>
      <path style="fill:#e7e9ec;fill-opacity:1;stroke:#e7e9ec;stroke-width:0.264999;stroke-opacity:1" d="m -113.41013,32.461068 c -0.272,-0.01998 -0.7811,0.146484 -1.10174,0.436666 -0.84306,0.76295 -0.59913,1.26819 0.3023,0.626316 0.43216,-0.307726 0.8558,-0.673089 0.94155,-0.811837 0.099,-0.160165 0.0211,-0.239159 -0.14211,-0.251145 z" id="SvgjsPath1001"></path>
      <path style="fill:#e7e9ec;fill-opacity:1;stroke:#e7e9ec;stroke-width:0.264999;stroke-opacity:1" d="m -87.874221,26.345161 c -9.179346,0.02055 -19.515149,0.279882 -19.825659,0.690914 -0.31989,0.423426 -0.40151,1.441178 -0.40825,5.09323 -0.01,5.160729 0.0395,5.298487 2.09341,5.91385 1.0735,0.32163 1.07332,0.321458 1.07332,16.145269 0,15.823811 6e-5,15.823903 -0.56275,16.125113 -0.41073,0.219816 -0.6118,0.221874 -0.74414,0.0078 -0.27987,-0.452842 -5.57227,3.600262 -5.57227,4.267438 0,0.612735 1.23526,-0.168251 2.77812,-1.756481 0.79375,-0.817092 0.79384,-0.816938 0.86662,3.667477 0.0601,3.703116 0.14773,4.567438 0.50384,4.960937 0.6387,0.70576 33.483384,0.742918 34.261474,0.03876 0.445859,-0.403497 0.483692,-0.995622 0.483692,-7.540625 0,-8.841729 0.375134,-8.161258 -4.497916,-8.161258 -4.03062,0 -4.248431,0.113618 -4.780071,2.489253 -0.331129,1.479653 -0.330973,1.479497 -5.977411,1.479497 -5.646441,0 -5.646685,0 -5.646685,-1.984375 0,-1.171342 0.110591,-1.984375 0.269751,-1.984375 0.591931,0 3.963582,-2.778649 3.963582,-3.266466 0,-0.563571 0.253802,-0.695203 -2.633948,1.36529 -1.516171,1.08183 -1.598943,1.109437 -1.591633,0.529166 0.006,-0.44196 0.46423,-0.943464 1.649511,-1.80299 1.4131,-1.024728 1.557493,-1.202515 1.036113,-1.276924 -0.351141,-0.05011 -0.98154,0.200136 -1.49965,0.595313 -1.161621,0.886015 -1.141111,0.896829 -1.152901,-0.625803 -0.0101,-1.307338 -0.01014,-1.307341 5.157825,-1.389063 6.73145,-0.106444 6.23874,0.401153 6.127789,-6.313307 -0.0817,-4.944079 -0.0814,-4.944015 1.169438,-5.838405 0.687951,-0.491913 1.253503,-1.102878 1.25677,-1.35754 0.008,-0.641011 -0.09386,-0.604985 -1.689817,0.599964 -1.102971,0.832752 -1.532006,1.017307 -1.981276,0.851112 -0.514909,-0.190474 -0.356135,-0.372121 1.551844,-1.775603 1.16885,-0.85979 2.124935,-1.659104 2.124935,-1.776637 0,-0.559578 -1.012428,-0.05637 -3.328479,1.654164 -1.895099,1.399635 -2.704761,1.847334 -3.229261,1.785938 -0.627869,-0.0735 -0.448701,-0.268984 1.737879,-1.894459 2.141431,-1.591916 2.720588,-2.288749 1.902211,-2.288749 -0.132353,0 -1.536226,0.9525 -3.119707,2.116666 -2.879051,2.116667 -2.878984,2.116667 -5.299935,2.116667 -2.420951,0 -2.421041,0 -2.421041,-1.455208 0,-1.23534 0.07353,-1.455209 0.485759,-1.455209 0.42535,0 6.657991,-4.351837 6.657991,-4.648811 0,-0.610113 -1.693807,0.227174 -4.052467,2.002978 -3.11105,2.342269 -3.091283,2.332014 -3.091283,1.593702 0,-0.342847 0.700022,-1.048835 2.03295,-2.050521 1.652251,-1.241653 1.926143,-1.543307 1.462445,-1.611273 -0.351632,-0.05154 -1.106258,0.326186 -1.966807,0.984438 -1.31154,1.003223 -1.40158,1.033658 -1.486731,0.500226 -0.0572,-0.358243 0.138147,-0.744124 0.529167,-1.044897 0.61981,-0.476756 0.619598,-0.476774 0.02429,-0.482658 -0.457042,-0.0045 -0.595313,-0.159317 -0.595313,-0.667142 0,-0.661458 2.59e-4,-0.661458 5.538679,-0.661458 6.13927,0 5.583825,-0.171966 5.980515,1.852083 0.346829,1.769684 0.559392,1.852083 4.784203,1.852083 4.753639,0 4.334103,0.791798 4.334103,-8.178829 0,-7.155042 -2.12e-4,-7.154989 -0.624253,-7.563879 -0.479327,-0.314068 -6.919081,-0.442314 -14.058571,-0.426331 z" id="SvgjsPath1000"></path>
    </g>
  </g>
</svg><style>@media (prefers-color-scheme: light) { :root { filter: none; } }
</style></svg>